<mxfile host="65bd71144e">
    <diagram id="pmKSsKB9wC-R4hlF7msM" name="Page-1">
        <mxGraphModel dx="808" dy="628" grid="1" gridSize="10" guides="1" tooltips="1" connect="1" arrows="1" fold="1" page="1" pageScale="1" pageWidth="850" pageHeight="1100" math="0" shadow="0">
            <root>
                <mxCell id="0"/>
                <mxCell id="1" parent="0"/>
                <mxCell id="42" value="Yes" style="edgeStyle=orthogonalEdgeStyle;rounded=0;html=1;exitX=0.5;exitY=1;exitDx=0;exitDy=0;entryX=0.5;entryY=0;entryDx=0;entryDy=0;labelBackgroundColor=default;fontSize=18;fontColor=default;" parent="1" source="13" target="19" edge="1">
                    <mxGeometry relative="1" as="geometry"/>
                </mxCell>
                <mxCell id="17" style="edgeStyle=none;html=1;exitX=0.5;exitY=1;exitDx=0;exitDy=0;entryX=0.5;entryY=0;entryDx=0;entryDy=0;fontColor=default;labelBackgroundColor=none;" parent="1" source="2" target="16" edge="1">
                    <mxGeometry relative="1" as="geometry"/>
                </mxCell>
                <mxCell id="2" value="&lt;div style=&quot;font-family: &amp;quot;droid sans mono&amp;quot; , &amp;quot;monospace&amp;quot; , &amp;quot;monospace&amp;quot; , &amp;quot;droid sans fallback&amp;quot; , &amp;quot;droid sans mono&amp;quot; , &amp;quot;monospace&amp;quot; , monospace ; font-size: 16px ; line-height: 22px&quot;&gt;&lt;div style=&quot;color: rgb(32, 21, 21); font-family: &amp;quot;droid sans mono&amp;quot;, &amp;quot;monospace&amp;quot;, &amp;quot;monospace&amp;quot;, &amp;quot;droid sans fallback&amp;quot;, &amp;quot;droid sans mono&amp;quot;, &amp;quot;monospace&amp;quot;, monospace; line-height: 22px;&quot;&gt;&lt;span style=&quot;color: #6992aa&quot;&gt;instanceManager&lt;/span&gt;&lt;span style=&quot;color: #777777&quot;&gt;.&lt;/span&gt;&lt;span style=&quot;color: #2281a7 ; font-weight: bold&quot;&gt;EnableLidar&lt;/span&gt;&lt;/div&gt;&lt;div style=&quot;color: rgb(32, 21, 21); font-family: &amp;quot;droid sans mono&amp;quot;, &amp;quot;monospace&amp;quot;, &amp;quot;monospace&amp;quot;, &amp;quot;droid sans fallback&amp;quot;, &amp;quot;droid sans mono&amp;quot;, &amp;quot;monospace&amp;quot;, monospace; line-height: 22px;&quot;&gt;&lt;span style=&quot;color: #777777&quot;&gt;(&lt;/span&gt;&lt;span style=&quot;color: #6992aa&quot;&gt;withLidar&lt;/span&gt;&lt;span style=&quot;color: #777777&quot;&gt;)&lt;/span&gt;&lt;/div&gt;&lt;/div&gt;" style="rounded=0;whiteSpace=wrap;html=1;labelBackgroundColor=none;fontColor=default;fontStyle=0" parent="1" vertex="1">
                    <mxGeometry x="163" y="90" width="290" height="50" as="geometry"/>
                </mxCell>
                <mxCell id="23" style="edgeStyle=none;html=1;entryX=0.5;entryY=0;entryDx=0;entryDy=0;labelBackgroundColor=none;fontColor=default;" parent="1" source="3" target="2" edge="1">
                    <mxGeometry relative="1" as="geometry"/>
                </mxCell>
                <mxCell id="3" value="start" style="ellipse;whiteSpace=wrap;html=1;fontSize=18;fontColor=#000000;strokeColor=#000000;fillColor=#FFFFFF;labelBackgroundColor=none;" parent="1" vertex="1">
                    <mxGeometry x="248" y="17" width="120" height="50" as="geometry"/>
                </mxCell>
                <mxCell id="4" value="end" style="ellipse;whiteSpace=wrap;html=1;fontSize=18;fontColor=#000000;strokeColor=#000000;fillColor=#FFFFFF;labelBackgroundColor=none;" parent="1" vertex="1">
                    <mxGeometry x="560" y="980" width="120" height="50" as="geometry"/>
                </mxCell>
                <mxCell id="25" style="edgeStyle=orthogonalEdgeStyle;html=1;exitX=0;exitY=0.5;exitDx=0;exitDy=0;entryX=0.5;entryY=0;entryDx=0;entryDy=0;labelBackgroundColor=none;fontColor=default;rounded=0;" parent="1" source="7" target="8" edge="1">
                    <mxGeometry relative="1" as="geometry"/>
                </mxCell>
                <mxCell id="7" value="&lt;div style=&quot;font-family: &amp;quot;droid sans mono&amp;quot; , &amp;quot;monospace&amp;quot; , &amp;quot;monospace&amp;quot; , &amp;quot;droid sans fallback&amp;quot; , &amp;quot;droid sans mono&amp;quot; , &amp;quot;monospace&amp;quot; , monospace ; font-size: 16px ; line-height: 22px&quot;&gt;&lt;div style=&quot;color: rgb(32, 21, 21); font-family: &amp;quot;droid sans mono&amp;quot;, &amp;quot;monospace&amp;quot;, &amp;quot;monospace&amp;quot;, &amp;quot;droid sans fallback&amp;quot;, &amp;quot;droid sans mono&amp;quot;, &amp;quot;monospace&amp;quot;, monospace; line-height: 22px;&quot;&gt;&lt;div style=&quot;font-family: &amp;quot;droid sans mono&amp;quot; , &amp;quot;monospace&amp;quot; , &amp;quot;monospace&amp;quot; , &amp;quot;droid sans fallback&amp;quot; , &amp;quot;droid sans mono&amp;quot; , &amp;quot;monospace&amp;quot; , monospace ; line-height: 22px&quot;&gt;&lt;span style=&quot;color: #6992aa&quot;&gt;errorMessage&lt;/span&gt; &lt;span style=&quot;color: #3cafa6&quot;&gt;=&lt;/span&gt; &lt;span style=&quot;color: #7a3e9d ; font-weight: bold&quot;&gt;ErrorMessage&lt;/span&gt;&lt;span style=&quot;color: #777777&quot;&gt;::&lt;/span&gt;&lt;span style=&quot;color: #2281a7 ; font-weight: bold&quot;&gt;GetInstance&lt;/span&gt;&lt;span style=&quot;color: #777777&quot;&gt;()&lt;/span&gt;&lt;/div&gt;&lt;/div&gt;&lt;/div&gt;" style="rounded=0;whiteSpace=wrap;html=1;labelBackgroundColor=none;fontStyle=0;fillColor=#fff2cc;strokeColor=#d6b656;" parent="1" vertex="1">
                    <mxGeometry x="163" y="238" width="290" height="50" as="geometry"/>
                </mxCell>
                <mxCell id="84" style="edgeStyle=none;html=1;exitX=1;exitY=0.5;exitDx=0;exitDy=0;entryX=0;entryY=0.5;entryDx=0;entryDy=0;" parent="1" source="8" target="45" edge="1">
                    <mxGeometry relative="1" as="geometry"/>
                </mxCell>
                <mxCell id="8" value="&lt;div style=&quot;font-family: &amp;quot;droid sans mono&amp;quot; , &amp;quot;monospace&amp;quot; , &amp;quot;monospace&amp;quot; , &amp;quot;droid sans fallback&amp;quot; , &amp;quot;droid sans mono&amp;quot; , &amp;quot;monospace&amp;quot; , monospace ; font-size: 16px ; line-height: 22px&quot;&gt;&lt;div style=&quot;color: rgb(32, 21, 21); font-family: &amp;quot;droid sans mono&amp;quot;, &amp;quot;monospace&amp;quot;, &amp;quot;monospace&amp;quot;, &amp;quot;droid sans fallback&amp;quot;, &amp;quot;droid sans mono&amp;quot;, &amp;quot;monospace&amp;quot;, monospace; line-height: 22px;&quot;&gt;&lt;div style=&quot;font-family: &amp;quot;droid sans mono&amp;quot; , &amp;quot;monospace&amp;quot; , &amp;quot;monospace&amp;quot; , &amp;quot;droid sans fallback&amp;quot; , &amp;quot;droid sans mono&amp;quot; , &amp;quot;monospace&amp;quot; , monospace ; line-height: 22px&quot;&gt;&lt;div style=&quot;font-family: &amp;quot;droid sans mono&amp;quot; , &amp;quot;monospace&amp;quot; , &amp;quot;monospace&amp;quot; , &amp;quot;droid sans fallback&amp;quot; , &amp;quot;droid sans mono&amp;quot; , &amp;quot;monospace&amp;quot; , monospace ; line-height: 22px&quot;&gt;&lt;span style=&quot;color: #2281a7 ; font-weight: bold&quot;&gt;#LoadConfig&lt;/span&gt;&lt;/div&gt;&lt;/div&gt;&lt;/div&gt;&lt;/div&gt;" style="rounded=0;whiteSpace=wrap;html=1;labelBackgroundColor=none;fontColor=default;fontStyle=0" parent="1" vertex="1">
                    <mxGeometry x="58" y="412" width="170" height="50" as="geometry"/>
                </mxCell>
                <mxCell id="33" style="edgeStyle=orthogonalEdgeStyle;rounded=0;html=1;exitX=1;exitY=0.5;exitDx=0;exitDy=0;labelBackgroundColor=none;fontColor=default;entryX=0;entryY=0.5;entryDx=0;entryDy=0;" parent="1" source="9" target="65" edge="1">
                    <mxGeometry relative="1" as="geometry">
                        <mxPoint x="493" y="382" as="targetPoint"/>
                    </mxGeometry>
                </mxCell>
                <mxCell id="9" value="&lt;div style=&quot;font-family: &amp;quot;droid sans mono&amp;quot; , &amp;quot;monospace&amp;quot; , &amp;quot;monospace&amp;quot; , &amp;quot;droid sans fallback&amp;quot; , &amp;quot;droid sans mono&amp;quot; , &amp;quot;monospace&amp;quot; , monospace ; font-size: 16px ; line-height: 22px&quot;&gt;&lt;div style=&quot;color: rgb(32, 21, 21); font-family: &amp;quot;droid sans mono&amp;quot;, &amp;quot;monospace&amp;quot;, &amp;quot;monospace&amp;quot;, &amp;quot;droid sans fallback&amp;quot;, &amp;quot;droid sans mono&amp;quot;, &amp;quot;monospace&amp;quot;, monospace; line-height: 22px;&quot;&gt;&lt;div style=&quot;font-family: &amp;quot;droid sans mono&amp;quot; , &amp;quot;monospace&amp;quot; , &amp;quot;monospace&amp;quot; , &amp;quot;droid sans fallback&amp;quot; , &amp;quot;droid sans mono&amp;quot; , &amp;quot;monospace&amp;quot; , monospace ; line-height: 22px&quot;&gt;&lt;div style=&quot;font-family: &amp;quot;droid sans mono&amp;quot; , &amp;quot;monospace&amp;quot; , &amp;quot;monospace&amp;quot; , &amp;quot;droid sans fallback&amp;quot; , &amp;quot;droid sans mono&amp;quot; , &amp;quot;monospace&amp;quot; , monospace ; line-height: 22px&quot;&gt;&lt;span style=&quot;color: #2281a7 ; font-weight: bold&quot;&gt;#&lt;/span&gt;&lt;span style=&quot;color: rgb(34 , 129 , 167) ; font-weight: bold ; font-family: &amp;quot;droid sans mono&amp;quot; , &amp;quot;monospace&amp;quot; , &amp;quot;monospace&amp;quot; , &amp;quot;droid sans fallback&amp;quot; , &amp;quot;droid sans mono&amp;quot; , &amp;quot;monospace&amp;quot; , monospace&quot;&gt;CheckDevice&lt;/span&gt;&lt;/div&gt;&lt;/div&gt;&lt;/div&gt;&lt;/div&gt;" style="rounded=0;whiteSpace=wrap;html=1;labelBackgroundColor=none;fontColor=default;fontStyle=0" parent="1" vertex="1">
                    <mxGeometry x="346" y="413" width="170" height="50" as="geometry"/>
                </mxCell>
                <mxCell id="44" style="edgeStyle=orthogonalEdgeStyle;rounded=0;html=1;exitX=0.5;exitY=1;exitDx=0;exitDy=0;entryX=0.5;entryY=0;entryDx=0;entryDy=0;labelBackgroundColor=none;fontSize=18;fontColor=default;" parent="1" source="10" target="13" edge="1">
                    <mxGeometry relative="1" as="geometry"/>
                </mxCell>
                <mxCell id="10" value="&lt;div style=&quot;font-family: &amp;quot;droid sans mono&amp;quot; , &amp;quot;monospace&amp;quot; , &amp;quot;monospace&amp;quot; , &amp;quot;droid sans fallback&amp;quot; , &amp;quot;droid sans mono&amp;quot; , &amp;quot;monospace&amp;quot; , monospace ; font-size: 16px ; line-height: 22px&quot;&gt;&lt;div style=&quot;color: rgb(32, 21, 21); font-family: &amp;quot;droid sans mono&amp;quot;, &amp;quot;monospace&amp;quot;, &amp;quot;monospace&amp;quot;, &amp;quot;droid sans fallback&amp;quot;, &amp;quot;droid sans mono&amp;quot;, &amp;quot;monospace&amp;quot;, monospace; line-height: 22px;&quot;&gt;&lt;div style=&quot;font-family: &amp;quot;droid sans mono&amp;quot; , &amp;quot;monospace&amp;quot; , &amp;quot;monospace&amp;quot; , &amp;quot;droid sans fallback&amp;quot; , &amp;quot;droid sans mono&amp;quot; , &amp;quot;monospace&amp;quot; , monospace ; line-height: 22px&quot;&gt;&lt;div style=&quot;font-family: &amp;quot;droid sans mono&amp;quot; , &amp;quot;monospace&amp;quot; , &amp;quot;monospace&amp;quot; , &amp;quot;droid sans fallback&amp;quot; , &amp;quot;droid sans mono&amp;quot; , &amp;quot;monospace&amp;quot; , monospace ; line-height: 22px&quot;&gt;&lt;div style=&quot;font-family: &amp;quot;droid sans mono&amp;quot; , &amp;quot;monospace&amp;quot; , &amp;quot;monospace&amp;quot; , &amp;quot;droid sans fallback&amp;quot; , &amp;quot;droid sans mono&amp;quot; , &amp;quot;monospace&amp;quot; , monospace ; line-height: 22px&quot;&gt;&lt;div style=&quot;font-family: &amp;quot;droid sans mono&amp;quot; , &amp;quot;monospace&amp;quot; , &amp;quot;monospace&amp;quot; , &amp;quot;droid sans fallback&amp;quot; , &amp;quot;droid sans mono&amp;quot; , &amp;quot;monospace&amp;quot; , monospace ; line-height: 22px&quot;&gt;&lt;div style=&quot;font-family: &amp;quot;droid sans mono&amp;quot; , &amp;quot;monospace&amp;quot; , &amp;quot;monospace&amp;quot; , &amp;quot;droid sans fallback&amp;quot; , &amp;quot;droid sans mono&amp;quot; , &amp;quot;monospace&amp;quot; , monospace ; line-height: 22px&quot;&gt;&lt;span style=&quot;color: #2281a7 ; font-weight: bold&quot;&gt;#Start&lt;/span&gt;&lt;span style=&quot;color: #777777&quot;&gt;(&lt;/span&gt;&lt;span style=&quot;color: #6992aa&quot;&gt;detectParam&lt;/span&gt;&lt;span style=&quot;color: #777777&quot;&gt;)&lt;/span&gt;&lt;/div&gt;&lt;/div&gt;&lt;/div&gt;&lt;/div&gt;&lt;/div&gt;&lt;/div&gt;&lt;/div&gt;" style="rounded=0;whiteSpace=wrap;html=1;labelBackgroundColor=none;fontColor=default;fontStyle=0" parent="1" vertex="1">
                    <mxGeometry x="265" y="561" width="200" height="50" as="geometry"/>
                </mxCell>
                <mxCell id="69" style="edgeStyle=orthogonalEdgeStyle;rounded=0;html=1;exitX=0.75;exitY=1;exitDx=0;exitDy=0;entryX=0.5;entryY=0;entryDx=0;entryDy=0;labelBackgroundColor=default;fontSize=18;fontColor=default;" parent="1" source="11" target="68" edge="1">
                    <mxGeometry relative="1" as="geometry"/>
                </mxCell>
                <mxCell id="11" value="&lt;div style=&quot;font-family: &amp;quot;droid sans mono&amp;quot; , &amp;quot;monospace&amp;quot; , &amp;quot;monospace&amp;quot; , &amp;quot;droid sans fallback&amp;quot; , &amp;quot;droid sans mono&amp;quot; , &amp;quot;monospace&amp;quot; , monospace ; font-size: 16px ; line-height: 22px&quot;&gt;&lt;div style=&quot;color: rgb(32, 21, 21); font-family: &amp;quot;droid sans mono&amp;quot;, &amp;quot;monospace&amp;quot;, &amp;quot;monospace&amp;quot;, &amp;quot;droid sans fallback&amp;quot;, &amp;quot;droid sans mono&amp;quot;, &amp;quot;monospace&amp;quot;, monospace; line-height: 22px;&quot;&gt;&lt;div style=&quot;font-family: &amp;quot;droid sans mono&amp;quot; , &amp;quot;monospace&amp;quot; , &amp;quot;monospace&amp;quot; , &amp;quot;droid sans fallback&amp;quot; , &amp;quot;droid sans mono&amp;quot; , &amp;quot;monospace&amp;quot; , monospace ; line-height: 22px&quot;&gt;&lt;div style=&quot;font-family: &amp;quot;droid sans mono&amp;quot; , &amp;quot;monospace&amp;quot; , &amp;quot;monospace&amp;quot; , &amp;quot;droid sans fallback&amp;quot; , &amp;quot;droid sans mono&amp;quot; , &amp;quot;monospace&amp;quot; , monospace ; line-height: 22px&quot;&gt;&lt;div style=&quot;font-family: &amp;quot;droid sans mono&amp;quot; , &amp;quot;monospace&amp;quot; , &amp;quot;monospace&amp;quot; , &amp;quot;droid sans fallback&amp;quot; , &amp;quot;droid sans mono&amp;quot; , &amp;quot;monospace&amp;quot; , monospace ; line-height: 22px&quot;&gt;&lt;span style=&quot;color: #2281a7 ; font-weight: bold&quot;&gt;#&lt;/span&gt;&lt;span style=&quot;color: rgb(34 , 129 , 167) ; font-weight: bold ; font-family: &amp;quot;droid sans mono&amp;quot; , &amp;quot;monospace&amp;quot; , &amp;quot;monospace&amp;quot; , &amp;quot;droid sans fallback&amp;quot; , &amp;quot;droid sans mono&amp;quot; , &amp;quot;monospace&amp;quot; , monospace&quot;&gt;InitModel&lt;/span&gt;&lt;/div&gt;&lt;/div&gt;&lt;/div&gt;&lt;/div&gt;&lt;/div&gt;" style="rounded=0;whiteSpace=wrap;html=1;labelBackgroundColor=none;fontColor=default;fontStyle=0" parent="1" vertex="1">
                    <mxGeometry x="660" y="413" width="170" height="50" as="geometry"/>
                </mxCell>
                <mxCell id="31" style="edgeStyle=orthogonalEdgeStyle;rounded=0;html=1;exitX=0.5;exitY=1;exitDx=0;exitDy=0;entryX=0.102;entryY=0.004;entryDx=0;entryDy=0;labelBackgroundColor=none;fontColor=default;entryPerimeter=0;" parent="1" source="12" target="9" edge="1">
                    <mxGeometry relative="1" as="geometry"/>
                </mxCell>
                <mxCell id="12" value="&lt;div style=&quot;font-family: &amp;quot;droid sans mono&amp;quot; , &amp;quot;monospace&amp;quot; , &amp;quot;monospace&amp;quot; , &amp;quot;droid sans fallback&amp;quot; , &amp;quot;droid sans mono&amp;quot; , &amp;quot;monospace&amp;quot; , monospace ; font-size: 16px ; line-height: 22px&quot;&gt;&lt;div style=&quot;color: rgb(32, 21, 21); font-family: &amp;quot;droid sans mono&amp;quot;, &amp;quot;monospace&amp;quot;, &amp;quot;monospace&amp;quot;, &amp;quot;droid sans fallback&amp;quot;, &amp;quot;droid sans mono&amp;quot;, &amp;quot;monospace&amp;quot;, monospace; line-height: 22px;&quot;&gt;&lt;div style=&quot;font-family: &amp;quot;droid sans mono&amp;quot; , &amp;quot;monospace&amp;quot; , &amp;quot;monospace&amp;quot; , &amp;quot;droid sans fallback&amp;quot; , &amp;quot;droid sans mono&amp;quot; , &amp;quot;monospace&amp;quot; , monospace ; line-height: 22px&quot;&gt;&lt;div style=&quot;font-family: &amp;quot;droid sans mono&amp;quot; , &amp;quot;monospace&amp;quot; , &amp;quot;monospace&amp;quot; , &amp;quot;droid sans fallback&amp;quot; , &amp;quot;droid sans mono&amp;quot; , &amp;quot;monospace&amp;quot; , monospace ; line-height: 22px&quot;&gt;&lt;div&gt;&lt;span style=&quot;color: #6992aa&quot;&gt;obstacle&lt;/span&gt;&lt;span style=&quot;color: #777777&quot;&gt;.&lt;/span&gt;&lt;span style=&quot;color: #6992aa&quot;&gt;status&lt;/span&gt; &lt;span style=&quot;color: #3cafa6&quot;&gt;=&lt;/span&gt; &lt;span style=&quot;color: #b6337f&quot;&gt;1&lt;/span&gt;&lt;span style=&quot;color: #777777&quot;&gt;;&lt;/span&gt;&lt;/div&gt;&lt;div&gt;        &lt;span style=&quot;color: #6992aa&quot;&gt;obstacle&lt;/span&gt;&lt;span style=&quot;color: #777777&quot;&gt;.&lt;/span&gt;&lt;span style=&quot;color: #6992aa&quot;&gt;maps&lt;/span&gt;&lt;span style=&quot;color: #777777&quot;&gt;.&lt;/span&gt;&lt;span style=&quot;color: #2281a7 ; font-weight: bold&quot;&gt;clear&lt;/span&gt;&lt;span style=&quot;color: #777777&quot;&gt;();&lt;/span&gt;&lt;/div&gt;&lt;/div&gt;&lt;/div&gt;&lt;/div&gt;&lt;/div&gt;" style="rounded=0;whiteSpace=wrap;html=1;labelBackgroundColor=none;fontStyle=0;fillColor=#fff2cc;strokeColor=#d6b656;" parent="1" vertex="1">
                    <mxGeometry x="218" y="313" width="290" height="50" as="geometry"/>
                </mxCell>
                <mxCell id="83" value="No" style="edgeStyle=orthogonalEdgeStyle;rounded=0;html=1;exitX=1;exitY=0.5;exitDx=0;exitDy=0;entryX=1;entryY=0.5;entryDx=0;entryDy=0;labelBackgroundColor=default;fontSize=18;fontColor=default;" parent="1" source="13" target="21" edge="1">
                    <mxGeometry relative="1" as="geometry">
                        <Array as="points">
                            <mxPoint x="500" y="678"/>
                            <mxPoint x="500" y="886"/>
                        </Array>
                    </mxGeometry>
                </mxCell>
                <mxCell id="13" value="&lt;div style=&quot;color: rgb(32, 21, 21); font-family: &amp;quot;droid sans mono&amp;quot;, &amp;quot;monospace&amp;quot;, &amp;quot;monospace&amp;quot;, &amp;quot;droid sans fallback&amp;quot;, &amp;quot;droid sans mono&amp;quot;, &amp;quot;monospace&amp;quot;, monospace; font-size: 16px; line-height: 22px;&quot;&gt;&lt;span style=&quot;color: #6992aa&quot;&gt;getCameraParam&lt;/span&gt;&lt;/div&gt;" style="rhombus;whiteSpace=wrap;html=1;labelBackgroundColor=none;fontColor=default;" parent="1" vertex="1">
                    <mxGeometry x="270" y="646" width="190" height="64" as="geometry"/>
                </mxCell>
                <mxCell id="29" style="edgeStyle=orthogonalEdgeStyle;rounded=0;html=1;exitX=0.75;exitY=1;exitDx=0;exitDy=0;entryX=0.5;entryY=0;entryDx=0;entryDy=0;labelBackgroundColor=none;fontColor=default;" parent="1" source="14" target="11" edge="1">
                    <mxGeometry relative="1" as="geometry"/>
                </mxCell>
                <mxCell id="14" value="&lt;span style=&quot;color: rgb(105, 146, 170); font-family: &amp;quot;droid sans mono&amp;quot;, &amp;quot;monospace&amp;quot;, &amp;quot;monospace&amp;quot;, &amp;quot;droid sans fallback&amp;quot;, &amp;quot;droid sans mono&amp;quot;, &amp;quot;monospace&amp;quot;, monospace; font-size: 16px;&quot;&gt;modelFile = ...&lt;/span&gt;" style="shape=parallelogram;perimeter=parallelogramPerimeter;whiteSpace=wrap;html=1;fixedSize=1;labelBackgroundColor=none;fontColor=default;" parent="1" vertex="1">
                    <mxGeometry x="542" y="323" width="190" height="40" as="geometry"/>
                </mxCell>
                <mxCell id="24" style="edgeStyle=none;html=1;exitX=0.5;exitY=1;exitDx=0;exitDy=0;entryX=0.5;entryY=0;entryDx=0;entryDy=0;labelBackgroundColor=none;fontColor=default;" parent="1" source="16" target="7" edge="1">
                    <mxGeometry relative="1" as="geometry"/>
                </mxCell>
                <mxCell id="16" value="&lt;span style=&quot;color: rgb(105, 146, 170); font-family: &amp;quot;droid sans mono&amp;quot;, &amp;quot;monospace&amp;quot;, &amp;quot;monospace&amp;quot;, &amp;quot;droid sans fallback&amp;quot;, &amp;quot;droid sans mono&amp;quot;, &amp;quot;monospace&amp;quot;, monospace; font-size: 16px;&quot;&gt;configFile = ...&lt;/span&gt;" style="shape=parallelogram;perimeter=parallelogramPerimeter;whiteSpace=wrap;html=1;fixedSize=1;labelBackgroundColor=none;fontColor=default;" parent="1" vertex="1">
                    <mxGeometry x="213" y="171" width="190" height="40" as="geometry"/>
                </mxCell>
                <mxCell id="40" style="edgeStyle=orthogonalEdgeStyle;rounded=0;html=1;exitX=0;exitY=0.5;exitDx=0;exitDy=0;entryX=1;entryY=0.5;entryDx=0;entryDy=0;labelBackgroundColor=none;fontSize=18;fontColor=default;" parent="1" source="18" target="10" edge="1">
                    <mxGeometry relative="1" as="geometry"/>
                </mxCell>
                <mxCell id="18" value="&lt;div style=&quot;font-family: &amp;quot;droid sans mono&amp;quot; , &amp;quot;monospace&amp;quot; , &amp;quot;monospace&amp;quot; , &amp;quot;droid sans fallback&amp;quot; , &amp;quot;droid sans mono&amp;quot; , &amp;quot;monospace&amp;quot; , monospace ; font-size: 16px ; line-height: 22px&quot;&gt;&lt;div style=&quot;color: rgb(32, 21, 21); font-family: &amp;quot;droid sans mono&amp;quot;, &amp;quot;monospace&amp;quot;, &amp;quot;monospace&amp;quot;, &amp;quot;droid sans fallback&amp;quot;, &amp;quot;droid sans mono&amp;quot;, &amp;quot;monospace&amp;quot;, monospace; line-height: 22px;&quot;&gt;&lt;div style=&quot;font-family: &amp;quot;droid sans mono&amp;quot; , &amp;quot;monospace&amp;quot; , &amp;quot;monospace&amp;quot; , &amp;quot;droid sans fallback&amp;quot; , &amp;quot;droid sans mono&amp;quot; , &amp;quot;monospace&amp;quot; , monospace ; line-height: 22px&quot;&gt;&lt;div style=&quot;font-family: &amp;quot;droid sans mono&amp;quot; , &amp;quot;monospace&amp;quot; , &amp;quot;monospace&amp;quot; , &amp;quot;droid sans fallback&amp;quot; , &amp;quot;droid sans mono&amp;quot; , &amp;quot;monospace&amp;quot; , monospace ; line-height: 22px&quot;&gt;&lt;div style=&quot;font-family: &amp;quot;droid sans mono&amp;quot; , &amp;quot;monospace&amp;quot; , &amp;quot;monospace&amp;quot; , &amp;quot;droid sans fallback&amp;quot; , &amp;quot;droid sans mono&amp;quot; , &amp;quot;monospace&amp;quot; , monospace ; line-height: 22px&quot;&gt;&lt;div style=&quot;font-family: &amp;quot;droid sans mono&amp;quot; , &amp;quot;monospace&amp;quot; , &amp;quot;monospace&amp;quot; , &amp;quot;droid sans fallback&amp;quot; , &amp;quot;droid sans mono&amp;quot; , &amp;quot;monospace&amp;quot; , monospace ; line-height: 22px&quot;&gt;&lt;span style=&quot;color: #6992aa&quot;&gt;escalatorMap&lt;/span&gt; &lt;span style=&quot;color: #3cafa6&quot;&gt;=&lt;/span&gt; &lt;span style=&quot;color: #3cafa6&quot;&gt;new&lt;/span&gt; &lt;span style=&quot;color: #7a3e9d ; font-weight: bold&quot;&gt;EscalatorMap&lt;/span&gt;&lt;span style=&quot;color: #777777&quot;&gt;();&lt;/span&gt;&lt;/div&gt;&lt;/div&gt;&lt;/div&gt;&lt;/div&gt;&lt;/div&gt;&lt;/div&gt;" style="rounded=0;whiteSpace=wrap;html=1;labelBackgroundColor=none;fontStyle=0;fillColor=#fff2cc;strokeColor=#d6b656;" parent="1" vertex="1">
                    <mxGeometry x="530" y="561" width="200" height="50" as="geometry"/>
                </mxCell>
                <mxCell id="43" style="edgeStyle=orthogonalEdgeStyle;rounded=0;html=1;exitX=0.5;exitY=1;exitDx=0;exitDy=0;entryX=0.5;entryY=0;entryDx=0;entryDy=0;labelBackgroundColor=none;fontSize=18;fontColor=default;" parent="1" source="19" target="21" edge="1">
                    <mxGeometry relative="1" as="geometry"/>
                </mxCell>
                <mxCell id="19" value="&lt;div style=&quot;font-family: &amp;quot;droid sans mono&amp;quot; , &amp;quot;monospace&amp;quot; , &amp;quot;monospace&amp;quot; , &amp;quot;droid sans fallback&amp;quot; , &amp;quot;droid sans mono&amp;quot; , &amp;quot;monospace&amp;quot; , monospace ; font-size: 16px ; line-height: 22px&quot;&gt;&lt;div style=&quot;color: rgb(32, 21, 21); font-family: &amp;quot;droid sans mono&amp;quot;, &amp;quot;monospace&amp;quot;, &amp;quot;monospace&amp;quot;, &amp;quot;droid sans fallback&amp;quot;, &amp;quot;droid sans mono&amp;quot;, &amp;quot;monospace&amp;quot;, monospace; line-height: 22px;&quot;&gt;&lt;div style=&quot;font-family: &amp;quot;droid sans mono&amp;quot; , &amp;quot;monospace&amp;quot; , &amp;quot;monospace&amp;quot; , &amp;quot;droid sans fallback&amp;quot; , &amp;quot;droid sans mono&amp;quot; , &amp;quot;monospace&amp;quot; , monospace ; line-height: 22px&quot;&gt;&lt;div style=&quot;font-family: &amp;quot;droid sans mono&amp;quot; , &amp;quot;monospace&amp;quot; , &amp;quot;monospace&amp;quot; , &amp;quot;droid sans fallback&amp;quot; , &amp;quot;droid sans mono&amp;quot; , &amp;quot;monospace&amp;quot; , monospace ; line-height: 22px&quot;&gt;&lt;div style=&quot;font-family: &amp;quot;droid sans mono&amp;quot; , &amp;quot;monospace&amp;quot; , &amp;quot;monospace&amp;quot; , &amp;quot;droid sans fallback&amp;quot; , &amp;quot;droid sans mono&amp;quot; , &amp;quot;monospace&amp;quot; , monospace ; line-height: 22px&quot;&gt;&lt;div style=&quot;font-family: &amp;quot;droid sans mono&amp;quot; , &amp;quot;monospace&amp;quot; , &amp;quot;monospace&amp;quot; , &amp;quot;droid sans fallback&amp;quot; , &amp;quot;droid sans mono&amp;quot; , &amp;quot;monospace&amp;quot; , monospace ; line-height: 22px&quot;&gt;&lt;div style=&quot;font-family: &amp;quot;droid sans mono&amp;quot; , &amp;quot;monospace&amp;quot; , &amp;quot;monospace&amp;quot; , &amp;quot;droid sans fallback&amp;quot; , &amp;quot;droid sans mono&amp;quot; , &amp;quot;monospace&amp;quot; , monospace ; line-height: 22px&quot;&gt;&lt;span style=&quot;color: #2281a7 ; font-weight: bold&quot;&gt;SetParam&lt;/span&gt;&lt;span style=&quot;color: #777777&quot;&gt;(&lt;/span&gt;&lt;span style=&quot;color: #6992aa&quot;&gt;cameraParam&lt;/span&gt;&lt;span style=&quot;color: #777777&quot;&gt;)&lt;/span&gt;&lt;/div&gt;&lt;/div&gt;&lt;/div&gt;&lt;/div&gt;&lt;/div&gt;&lt;/div&gt;&lt;/div&gt;" style="rounded=0;whiteSpace=wrap;html=1;labelBackgroundColor=none;fontColor=default;fontStyle=0" parent="1" vertex="1">
                    <mxGeometry x="257" y="765" width="215" height="50" as="geometry"/>
                </mxCell>
                <mxCell id="35" value="问题" style="swimlane;fontStyle=1;childLayout=stackLayout;horizontal=1;startSize=30;horizontalStack=0;resizeParent=1;resizeParentMax=0;resizeLast=0;collapsible=1;marginBottom=0;labelBackgroundColor=none;fontColor=default;fontSize=18;" parent="1" vertex="1">
                    <mxGeometry x="42" y="1137" width="361" height="210" as="geometry">
                        <mxRectangle x="59" y="1100" width="60" height="30" as="alternateBounds"/>
                    </mxGeometry>
                </mxCell>
                <mxCell id="36" value="配置相关的操作，和配置无关的操作没有分开；" style="text;strokeColor=none;fillColor=none;align=left;verticalAlign=middle;spacingLeft=4;spacingRight=4;overflow=hidden;points=[[0,0.5],[1,0.5]];portConstraint=eastwest;rotatable=0;labelBackgroundColor=none;fontColor=default;" parent="35" vertex="1">
                    <mxGeometry y="30" width="361" height="30" as="geometry"/>
                </mxCell>
                <mxCell id="37" value="对于日志项的依赖顺序；" style="text;strokeColor=none;fillColor=none;align=left;verticalAlign=middle;spacingLeft=4;spacingRight=4;overflow=hidden;points=[[0,0.5],[1,0.5]];portConstraint=eastwest;rotatable=0;labelBackgroundColor=none;fontColor=default;" parent="35" vertex="1">
                    <mxGeometry y="60" width="361" height="30" as="geometry"/>
                </mxCell>
                <mxCell id="58" style="text;strokeColor=none;fillColor=none;align=left;verticalAlign=middle;spacingLeft=4;spacingRight=4;overflow=hidden;points=[[0,0.5],[1,0.5]];portConstraint=eastwest;rotatable=0;labelBackgroundColor=none;fontColor=default;" parent="35" vertex="1">
                    <mxGeometry y="90" width="361" height="30" as="geometry"/>
                </mxCell>
                <mxCell id="57" style="text;strokeColor=none;fillColor=none;align=left;verticalAlign=middle;spacingLeft=4;spacingRight=4;overflow=hidden;points=[[0,0.5],[1,0.5]];portConstraint=eastwest;rotatable=0;labelBackgroundColor=none;fontColor=default;" parent="35" vertex="1">
                    <mxGeometry y="120" width="361" height="30" as="geometry"/>
                </mxCell>
                <mxCell id="56" style="text;strokeColor=none;fillColor=none;align=left;verticalAlign=middle;spacingLeft=4;spacingRight=4;overflow=hidden;points=[[0,0.5],[1,0.5]];portConstraint=eastwest;rotatable=0;labelBackgroundColor=none;fontColor=default;" parent="35" vertex="1">
                    <mxGeometry y="150" width="361" height="30" as="geometry"/>
                </mxCell>
                <mxCell id="55" style="text;strokeColor=none;fillColor=none;align=left;verticalAlign=middle;spacingLeft=4;spacingRight=4;overflow=hidden;points=[[0,0.5],[1,0.5]];portConstraint=eastwest;rotatable=0;labelBackgroundColor=none;fontColor=default;" parent="35" vertex="1">
                    <mxGeometry y="180" width="361" height="30" as="geometry"/>
                </mxCell>
                <mxCell id="64" value="Yes" style="edgeStyle=orthogonalEdgeStyle;rounded=0;html=1;exitX=0.5;exitY=0;exitDx=0;exitDy=0;entryX=0.25;entryY=1;entryDx=0;entryDy=0;labelBackgroundColor=default;fontSize=18;fontColor=default;" parent="1" source="45" target="12" edge="1">
                    <mxGeometry relative="1" as="geometry"/>
                </mxCell>
                <mxCell id="45" value="&lt;div style=&quot;color: rgb(32 , 21 , 21) ; font-family: &amp;#34;droid sans mono&amp;#34; , &amp;#34;monospace&amp;#34; , &amp;#34;monospace&amp;#34; , &amp;#34;droid sans fallback&amp;#34; , &amp;#34;droid sans mono&amp;#34; , &amp;#34;monospace&amp;#34; , monospace ; font-size: 16px ; line-height: 22px&quot;&gt;&lt;span style=&quot;color: #6992aa&quot;&gt;ret&lt;/span&gt;&lt;/div&gt;" style="rhombus;whiteSpace=wrap;html=1;labelBackgroundColor=none;fontColor=default;" parent="1" vertex="1">
                    <mxGeometry x="250" y="413" width="77" height="48" as="geometry"/>
                </mxCell>
                <mxCell id="49" value="TODO" style="swimlane;fontStyle=1;childLayout=stackLayout;horizontal=1;startSize=30;horizontalStack=0;resizeParent=1;resizeParentMax=0;resizeLast=0;collapsible=1;marginBottom=0;labelBackgroundColor=none;fontColor=default;fontSize=18;container=0;" parent="1" vertex="1">
                    <mxGeometry x="432.5" y="1137" width="361" height="210" as="geometry">
                        <mxRectangle x="59" y="1100" width="60" height="30" as="alternateBounds"/>
                    </mxGeometry>
                </mxCell>
                <mxCell id="50" value="所有信息都要出现在流程图中，包括日志消息；" style="text;strokeColor=none;fillColor=none;align=left;verticalAlign=middle;spacingLeft=4;spacingRight=4;overflow=hidden;points=[[0,0.5],[1,0.5]];portConstraint=eastwest;rotatable=0;labelBackgroundColor=none;fontColor=default;" parent="49" vertex="1">
                    <mxGeometry y="30" width="361" height="30" as="geometry"/>
                </mxCell>
                <mxCell id="54" style="text;strokeColor=none;fillColor=none;align=left;verticalAlign=middle;spacingLeft=4;spacingRight=4;overflow=hidden;points=[[0,0.5],[1,0.5]];portConstraint=eastwest;rotatable=0;labelBackgroundColor=none;fontColor=default;" parent="49" vertex="1">
                    <mxGeometry y="60" width="361" height="30" as="geometry"/>
                </mxCell>
                <mxCell id="59" style="text;strokeColor=none;fillColor=none;align=left;verticalAlign=middle;spacingLeft=4;spacingRight=4;overflow=hidden;points=[[0,0.5],[1,0.5]];portConstraint=eastwest;rotatable=0;labelBackgroundColor=none;fontColor=default;" parent="49" vertex="1">
                    <mxGeometry y="90" width="361" height="30" as="geometry"/>
                </mxCell>
                <mxCell id="60" style="text;strokeColor=none;fillColor=none;align=left;verticalAlign=middle;spacingLeft=4;spacingRight=4;overflow=hidden;points=[[0,0.5],[1,0.5]];portConstraint=eastwest;rotatable=0;labelBackgroundColor=none;fontColor=default;" parent="49" vertex="1">
                    <mxGeometry y="120" width="361" height="30" as="geometry"/>
                </mxCell>
                <mxCell id="61" style="text;strokeColor=none;fillColor=none;align=left;verticalAlign=middle;spacingLeft=4;spacingRight=4;overflow=hidden;points=[[0,0.5],[1,0.5]];portConstraint=eastwest;rotatable=0;labelBackgroundColor=none;fontColor=default;" parent="49" vertex="1">
                    <mxGeometry y="150" width="361" height="30" as="geometry"/>
                </mxCell>
                <mxCell id="62" style="text;strokeColor=none;fillColor=none;align=left;verticalAlign=middle;spacingLeft=4;spacingRight=4;overflow=hidden;points=[[0,0.5],[1,0.5]];portConstraint=eastwest;rotatable=0;labelBackgroundColor=none;fontColor=default;" parent="49" vertex="1">
                    <mxGeometry y="180" width="361" height="30" as="geometry"/>
                </mxCell>
                <mxCell id="66" value="Yes" style="edgeStyle=orthogonalEdgeStyle;rounded=0;html=1;exitX=0.5;exitY=0;exitDx=0;exitDy=0;entryX=0.25;entryY=1;entryDx=0;entryDy=0;labelBackgroundColor=default;fontSize=18;fontColor=default;" parent="1" source="65" target="14" edge="1">
                    <mxGeometry relative="1" as="geometry"/>
                </mxCell>
                <mxCell id="73" value="No" style="edgeStyle=orthogonalEdgeStyle;rounded=0;html=1;exitX=0.5;exitY=1;exitDx=0;exitDy=0;labelBackgroundColor=default;fontSize=18;fontColor=default;" parent="1" source="65" target="22" edge="1">
                    <mxGeometry x="-0.934" relative="1" as="geometry">
                        <Array as="points">
                            <mxPoint x="590" y="523"/>
                            <mxPoint x="140" y="523"/>
                        </Array>
                        <mxPoint as="offset"/>
                    </mxGeometry>
                </mxCell>
                <mxCell id="65" value="&lt;div style=&quot;color: rgb(32 , 21 , 21) ; font-family: &amp;#34;droid sans mono&amp;#34; , &amp;#34;monospace&amp;#34; , &amp;#34;monospace&amp;#34; , &amp;#34;droid sans fallback&amp;#34; , &amp;#34;droid sans mono&amp;#34; , &amp;#34;monospace&amp;#34; , monospace ; font-size: 16px ; line-height: 22px&quot;&gt;&lt;span style=&quot;color: #6992aa&quot;&gt;ret&lt;/span&gt;&lt;/div&gt;" style="rhombus;whiteSpace=wrap;html=1;labelBackgroundColor=none;fontColor=default;" parent="1" vertex="1">
                    <mxGeometry x="551" y="414" width="77" height="48" as="geometry"/>
                </mxCell>
                <mxCell id="70" value="Yes" style="edgeStyle=orthogonalEdgeStyle;rounded=0;html=1;exitX=0.5;exitY=1;exitDx=0;exitDy=0;entryX=1;entryY=0.5;entryDx=0;entryDy=0;labelBackgroundColor=default;fontSize=18;fontColor=default;" parent="1" source="68" target="18" edge="1">
                    <mxGeometry relative="1" as="geometry"/>
                </mxCell>
                <mxCell id="75" value="No" style="edgeStyle=orthogonalEdgeStyle;rounded=0;html=1;exitX=0;exitY=0.5;exitDx=0;exitDy=0;entryX=0.5;entryY=0;entryDx=0;entryDy=0;labelBackgroundColor=default;fontSize=18;fontColor=default;" parent="1" source="68" target="22" edge="1">
                    <mxGeometry x="-0.8754" relative="1" as="geometry">
                        <mxPoint as="offset"/>
                    </mxGeometry>
                </mxCell>
                <mxCell id="68" value="&lt;div style=&quot;color: rgb(32 , 21 , 21) ; font-family: &amp;#34;droid sans mono&amp;#34; , &amp;#34;monospace&amp;#34; , &amp;#34;monospace&amp;#34; , &amp;#34;droid sans fallback&amp;#34; , &amp;#34;droid sans mono&amp;#34; , &amp;#34;monospace&amp;#34; , monospace ; font-size: 16px ; line-height: 22px&quot;&gt;&lt;span style=&quot;color: #6992aa&quot;&gt;ret&lt;/span&gt;&lt;/div&gt;" style="rhombus;whiteSpace=wrap;html=1;labelBackgroundColor=none;fontColor=default;" parent="1" vertex="1">
                    <mxGeometry x="749" y="499" width="77" height="48" as="geometry"/>
                </mxCell>
                <mxCell id="77" style="edgeStyle=orthogonalEdgeStyle;rounded=0;html=1;exitX=0.5;exitY=1;exitDx=0;exitDy=0;entryX=0;entryY=0.5;entryDx=0;entryDy=0;labelBackgroundColor=default;fontSize=18;fontColor=default;" parent="1" source="72" target="4" edge="1">
                    <mxGeometry relative="1" as="geometry"/>
                </mxCell>
                <mxCell id="74" value="No" style="edgeStyle=orthogonalEdgeStyle;rounded=0;html=1;exitX=0.5;exitY=1;exitDx=0;exitDy=0;labelBackgroundColor=default;fontSize=18;fontColor=default;" parent="1" source="45" target="22" edge="1">
                    <mxGeometry x="-0.8943" relative="1" as="geometry">
                        <Array as="points">
                            <mxPoint x="289" y="523"/>
                            <mxPoint x="140" y="523"/>
                        </Array>
                        <mxPoint as="offset"/>
                    </mxGeometry>
                </mxCell>
                <mxCell id="79" value="" style="group" parent="1" vertex="1" connectable="0">
                    <mxGeometry x="40" y="861" width="200" height="100" as="geometry"/>
                </mxCell>
                <mxCell id="22" value="&lt;div style=&quot;font-family: &amp;quot;droid sans mono&amp;quot; , &amp;quot;monospace&amp;quot; , &amp;quot;monospace&amp;quot; , &amp;quot;droid sans fallback&amp;quot; , &amp;quot;droid sans mono&amp;quot; , &amp;quot;monospace&amp;quot; , monospace ; font-size: 16px ; line-height: 22px&quot;&gt;&lt;div style=&quot;color: rgb(32, 21, 21); font-family: &amp;quot;droid sans mono&amp;quot;, &amp;quot;monospace&amp;quot;, &amp;quot;monospace&amp;quot;, &amp;quot;droid sans fallback&amp;quot;, &amp;quot;droid sans mono&amp;quot;, &amp;quot;monospace&amp;quot;, monospace; line-height: 22px;&quot;&gt;&lt;div style=&quot;font-family: &amp;quot;droid sans mono&amp;quot; , &amp;quot;monospace&amp;quot; , &amp;quot;monospace&amp;quot; , &amp;quot;droid sans fallback&amp;quot; , &amp;quot;droid sans mono&amp;quot; , &amp;quot;monospace&amp;quot; , monospace ; line-height: 22px&quot;&gt;&lt;div style=&quot;font-family: &amp;quot;droid sans mono&amp;quot; , &amp;quot;monospace&amp;quot; , &amp;quot;monospace&amp;quot; , &amp;quot;droid sans fallback&amp;quot; , &amp;quot;droid sans mono&amp;quot; , &amp;quot;monospace&amp;quot; , monospace ; line-height: 22px&quot;&gt;&lt;div style=&quot;font-family: &amp;quot;droid sans mono&amp;quot; , &amp;quot;monospace&amp;quot; , &amp;quot;monospace&amp;quot; , &amp;quot;droid sans fallback&amp;quot; , &amp;quot;droid sans mono&amp;quot; , &amp;quot;monospace&amp;quot; , monospace ; line-height: 22px&quot;&gt;&lt;div style=&quot;font-family: &amp;quot;droid sans mono&amp;quot; , &amp;quot;monospace&amp;quot; , &amp;quot;monospace&amp;quot; , &amp;quot;droid sans fallback&amp;quot; , &amp;quot;droid sans mono&amp;quot; , &amp;quot;monospace&amp;quot; , monospace ; line-height: 22px&quot;&gt;&lt;div style=&quot;font-family: &amp;quot;droid sans mono&amp;quot; , &amp;quot;monospace&amp;quot; , &amp;quot;monospace&amp;quot; , &amp;quot;droid sans fallback&amp;quot; , &amp;quot;droid sans mono&amp;quot; , &amp;quot;monospace&amp;quot; , monospace ; line-height: 22px&quot;&gt;&lt;div style=&quot;font-family: &amp;quot;droid sans mono&amp;quot; , &amp;quot;monospace&amp;quot; , &amp;quot;monospace&amp;quot; , &amp;quot;droid sans fallback&amp;quot; , &amp;quot;droid sans mono&amp;quot; , &amp;quot;monospace&amp;quot; , monospace ; line-height: 22px&quot;&gt;&lt;span style=&quot;color: #6992aa&quot;&gt;inited&lt;/span&gt; &lt;span style=&quot;color: #3cafa6&quot;&gt;=&lt;/span&gt; &lt;span style=&quot;color: #9c5d27&quot;&gt;false&lt;/span&gt;&lt;span style=&quot;color: #777777&quot;&gt;;&lt;/span&gt;&lt;/div&gt;&lt;/div&gt;&lt;/div&gt;&lt;/div&gt;&lt;/div&gt;&lt;/div&gt;&lt;/div&gt;&lt;/div&gt;" style="rounded=0;whiteSpace=wrap;html=1;labelBackgroundColor=none;fontColor=default;fontStyle=0" parent="79" vertex="1">
                    <mxGeometry width="200" height="50" as="geometry"/>
                </mxCell>
                <mxCell id="72" value="&lt;div style=&quot;font-family: &amp;quot;droid sans mono&amp;quot; , &amp;quot;monospace&amp;quot; , &amp;quot;monospace&amp;quot; , &amp;quot;droid sans fallback&amp;quot; , &amp;quot;droid sans mono&amp;quot; , &amp;quot;monospace&amp;quot; , monospace ; font-size: 16px ; line-height: 22px&quot;&gt;&lt;div style=&quot;color: rgb(32 , 21 , 21) ; font-family: &amp;quot;droid sans mono&amp;quot; , &amp;quot;monospace&amp;quot; , &amp;quot;monospace&amp;quot; , &amp;quot;droid sans fallback&amp;quot; , &amp;quot;droid sans mono&amp;quot; , &amp;quot;monospace&amp;quot; , monospace ; line-height: 22px&quot;&gt;&lt;div style=&quot;font-family: &amp;quot;droid sans mono&amp;quot; , &amp;quot;monospace&amp;quot; , &amp;quot;monospace&amp;quot; , &amp;quot;droid sans fallback&amp;quot; , &amp;quot;droid sans mono&amp;quot; , &amp;quot;monospace&amp;quot; , monospace ; line-height: 22px&quot;&gt;&lt;div style=&quot;font-family: &amp;quot;droid sans mono&amp;quot; , &amp;quot;monospace&amp;quot; , &amp;quot;monospace&amp;quot; , &amp;quot;droid sans fallback&amp;quot; , &amp;quot;droid sans mono&amp;quot; , &amp;quot;monospace&amp;quot; , monospace ; line-height: 22px&quot;&gt;&lt;div style=&quot;font-family: &amp;quot;droid sans mono&amp;quot; , &amp;quot;monospace&amp;quot; , &amp;quot;monospace&amp;quot; , &amp;quot;droid sans fallback&amp;quot; , &amp;quot;droid sans mono&amp;quot; , &amp;quot;monospace&amp;quot; , monospace ; line-height: 22px&quot;&gt;&lt;div style=&quot;font-family: &amp;quot;droid sans mono&amp;quot; , &amp;quot;monospace&amp;quot; , &amp;quot;monospace&amp;quot; , &amp;quot;droid sans fallback&amp;quot; , &amp;quot;droid sans mono&amp;quot; , &amp;quot;monospace&amp;quot; , monospace ; line-height: 22px&quot;&gt;&lt;div style=&quot;font-family: &amp;quot;droid sans mono&amp;quot; , &amp;quot;monospace&amp;quot; , &amp;quot;monospace&amp;quot; , &amp;quot;droid sans fallback&amp;quot; , &amp;quot;droid sans mono&amp;quot; , &amp;quot;monospace&amp;quot; , monospace ; line-height: 22px&quot;&gt;&lt;div style=&quot;font-family: &amp;quot;droid sans mono&amp;quot; , &amp;quot;monospace&amp;quot; , &amp;quot;monospace&amp;quot; , &amp;quot;droid sans fallback&amp;quot; , &amp;quot;droid sans mono&amp;quot; , &amp;quot;monospace&amp;quot; , monospace ; line-height: 22px&quot;&gt;&lt;div style=&quot;font-family: &amp;quot;droid sans mono&amp;quot;, &amp;quot;monospace&amp;quot;, &amp;quot;monospace&amp;quot;, &amp;quot;droid sans fallback&amp;quot;, &amp;quot;droid sans mono&amp;quot;, &amp;quot;monospace&amp;quot;, monospace; line-height: 22px;&quot;&gt;&lt;span style=&quot;color: #2281a7 ; font-weight: bold&quot;&gt;LOG&lt;/span&gt;&lt;span style=&quot;color: #777777&quot;&gt;(&lt;/span&gt;ERROR&lt;span style=&quot;color: #777777&quot;&gt;)&lt;/span&gt; &lt;span style=&quot;color: #2281a7 ; font-weight: bold&quot;&gt;&amp;lt;&amp;lt;&lt;/span&gt; &lt;span style=&quot;color: #777777&quot;&gt;&quot;&lt;/span&gt;&lt;span style=&quot;color: #78ad45&quot;&gt;fail to init perception.&lt;/span&gt;&lt;span style=&quot;color: #777777&quot;&gt;&quot;&lt;/span&gt;&lt;/div&gt;&lt;/div&gt;&lt;/div&gt;&lt;/div&gt;&lt;/div&gt;&lt;/div&gt;&lt;/div&gt;&lt;/div&gt;&lt;/div&gt;" style="rounded=0;whiteSpace=wrap;html=1;labelBackgroundColor=none;fontColor=default;fontStyle=0" parent="79" vertex="1">
                    <mxGeometry y="50" width="200" height="50" as="geometry"/>
                </mxCell>
                <mxCell id="81" value="" style="group" parent="1" vertex="1" connectable="0">
                    <mxGeometry x="252.5" y="861" width="225" height="119" as="geometry"/>
                </mxCell>
                <mxCell id="21" value="&lt;div style=&quot;font-family: &amp;quot;droid sans mono&amp;quot; , &amp;quot;monospace&amp;quot; , &amp;quot;monospace&amp;quot; , &amp;quot;droid sans fallback&amp;quot; , &amp;quot;droid sans mono&amp;quot; , &amp;quot;monospace&amp;quot; , monospace ; font-size: 16px ; line-height: 22px&quot;&gt;&lt;div style=&quot;color: rgb(32, 21, 21); font-family: &amp;quot;droid sans mono&amp;quot;, &amp;quot;monospace&amp;quot;, &amp;quot;monospace&amp;quot;, &amp;quot;droid sans fallback&amp;quot;, &amp;quot;droid sans mono&amp;quot;, &amp;quot;monospace&amp;quot;, monospace; line-height: 22px;&quot;&gt;&lt;div style=&quot;font-family: &amp;quot;droid sans mono&amp;quot; , &amp;quot;monospace&amp;quot; , &amp;quot;monospace&amp;quot; , &amp;quot;droid sans fallback&amp;quot; , &amp;quot;droid sans mono&amp;quot; , &amp;quot;monospace&amp;quot; , monospace ; line-height: 22px&quot;&gt;&lt;div style=&quot;font-family: &amp;quot;droid sans mono&amp;quot; , &amp;quot;monospace&amp;quot; , &amp;quot;monospace&amp;quot; , &amp;quot;droid sans fallback&amp;quot; , &amp;quot;droid sans mono&amp;quot; , &amp;quot;monospace&amp;quot; , monospace ; line-height: 22px&quot;&gt;&lt;div style=&quot;font-family: &amp;quot;droid sans mono&amp;quot; , &amp;quot;monospace&amp;quot; , &amp;quot;monospace&amp;quot; , &amp;quot;droid sans fallback&amp;quot; , &amp;quot;droid sans mono&amp;quot; , &amp;quot;monospace&amp;quot; , monospace ; line-height: 22px&quot;&gt;&lt;div style=&quot;font-family: &amp;quot;droid sans mono&amp;quot; , &amp;quot;monospace&amp;quot; , &amp;quot;monospace&amp;quot; , &amp;quot;droid sans fallback&amp;quot; , &amp;quot;droid sans mono&amp;quot; , &amp;quot;monospace&amp;quot; , monospace ; line-height: 22px&quot;&gt;&lt;div style=&quot;font-family: &amp;quot;droid sans mono&amp;quot; , &amp;quot;monospace&amp;quot; , &amp;quot;monospace&amp;quot; , &amp;quot;droid sans fallback&amp;quot; , &amp;quot;droid sans mono&amp;quot; , &amp;quot;monospace&amp;quot; , monospace ; line-height: 22px&quot;&gt;&lt;div style=&quot;font-family: &amp;quot;droid sans mono&amp;quot; , &amp;quot;monospace&amp;quot; , &amp;quot;monospace&amp;quot; , &amp;quot;droid sans fallback&amp;quot; , &amp;quot;droid sans mono&amp;quot; , &amp;quot;monospace&amp;quot; , monospace ; line-height: 22px&quot;&gt;&lt;span style=&quot;color: #6992aa&quot;&gt;inited&lt;/span&gt; &lt;span style=&quot;color: #3cafa6&quot;&gt;=&lt;/span&gt; &lt;span style=&quot;color: #9c5d27&quot;&gt;true&lt;/span&gt;&lt;span style=&quot;color: #777777&quot;&gt;;&lt;/span&gt;&lt;/div&gt;&lt;/div&gt;&lt;/div&gt;&lt;/div&gt;&lt;/div&gt;&lt;/div&gt;&lt;/div&gt;&lt;/div&gt;" style="rounded=0;whiteSpace=wrap;html=1;labelBackgroundColor=none;fontColor=default;fontStyle=0" parent="81" vertex="1">
                    <mxGeometry width="225" height="50" as="geometry"/>
                </mxCell>
                <mxCell id="78" value="&lt;div style=&quot;font-family: &amp;#34;droid sans mono&amp;#34; , &amp;#34;monospace&amp;#34; , &amp;#34;monospace&amp;#34; , &amp;#34;droid sans fallback&amp;#34; , &amp;#34;droid sans mono&amp;#34; , &amp;#34;monospace&amp;#34; , monospace ; font-size: 16px ; line-height: 22px&quot;&gt;&lt;div style=&quot;color: rgb(32 , 21 , 21) ; font-family: &amp;#34;droid sans mono&amp;#34; , &amp;#34;monospace&amp;#34; , &amp;#34;monospace&amp;#34; , &amp;#34;droid sans fallback&amp;#34; , &amp;#34;droid sans mono&amp;#34; , &amp;#34;monospace&amp;#34; , monospace ; line-height: 22px&quot;&gt;&lt;div style=&quot;font-family: &amp;#34;droid sans mono&amp;#34; , &amp;#34;monospace&amp;#34; , &amp;#34;monospace&amp;#34; , &amp;#34;droid sans fallback&amp;#34; , &amp;#34;droid sans mono&amp;#34; , &amp;#34;monospace&amp;#34; , monospace ; line-height: 22px&quot;&gt;&lt;div style=&quot;font-family: &amp;#34;droid sans mono&amp;#34; , &amp;#34;monospace&amp;#34; , &amp;#34;monospace&amp;#34; , &amp;#34;droid sans fallback&amp;#34; , &amp;#34;droid sans mono&amp;#34; , &amp;#34;monospace&amp;#34; , monospace ; line-height: 22px&quot;&gt;&lt;div style=&quot;font-family: &amp;#34;droid sans mono&amp;#34; , &amp;#34;monospace&amp;#34; , &amp;#34;monospace&amp;#34; , &amp;#34;droid sans fallback&amp;#34; , &amp;#34;droid sans mono&amp;#34; , &amp;#34;monospace&amp;#34; , monospace ; line-height: 22px&quot;&gt;&lt;div style=&quot;font-family: &amp;#34;droid sans mono&amp;#34; , &amp;#34;monospace&amp;#34; , &amp;#34;monospace&amp;#34; , &amp;#34;droid sans fallback&amp;#34; , &amp;#34;droid sans mono&amp;#34; , &amp;#34;monospace&amp;#34; , monospace ; line-height: 22px&quot;&gt;&lt;div style=&quot;font-family: &amp;#34;droid sans mono&amp;#34; , &amp;#34;monospace&amp;#34; , &amp;#34;monospace&amp;#34; , &amp;#34;droid sans fallback&amp;#34; , &amp;#34;droid sans mono&amp;#34; , &amp;#34;monospace&amp;#34; , monospace ; line-height: 22px&quot;&gt;&lt;div style=&quot;font-family: &amp;#34;droid sans mono&amp;#34; , &amp;#34;monospace&amp;#34; , &amp;#34;monospace&amp;#34; , &amp;#34;droid sans fallback&amp;#34; , &amp;#34;droid sans mono&amp;#34; , &amp;#34;monospace&amp;#34; , monospace ; line-height: 22px&quot;&gt;&lt;div style=&quot;font-family: &amp;#34;droid sans mono&amp;#34; , &amp;#34;monospace&amp;#34; , &amp;#34;monospace&amp;#34; , &amp;#34;droid sans fallback&amp;#34; , &amp;#34;droid sans mono&amp;#34; , &amp;#34;monospace&amp;#34; , monospace ; line-height: 22px&quot;&gt;&lt;div style=&quot;background-color: rgb(245 , 245 , 245) ; font-family: &amp;#34;droid sans mono&amp;#34; , &amp;#34;monospace&amp;#34; , &amp;#34;monospace&amp;#34; , &amp;#34;droid sans fallback&amp;#34; , &amp;#34;droid sans mono&amp;#34; , &amp;#34;monospace&amp;#34; , monospace ; line-height: 22px&quot;&gt;&lt;span style=&quot;color: #2281a7 ; font-weight: bold&quot;&gt;LOG_CHECK_STATUS&lt;/span&gt;&lt;span style=&quot;color: #777777&quot;&gt;(&lt;/span&gt;INFO&lt;span style=&quot;color: #777777&quot;&gt;)&lt;/span&gt; &lt;span style=&quot;color: #2281a7 ; font-weight: bold&quot;&gt;&amp;lt;&amp;lt;&lt;/span&gt; &lt;span style=&quot;color: #777777&quot;&gt;&quot;&lt;/span&gt;&lt;span style=&quot;color: #78ad45&quot;&gt;success to init perception.&lt;/span&gt;&lt;span style=&quot;color: #777777&quot;&gt;&quot;&lt;/span&gt;&lt;/div&gt;&lt;/div&gt;&lt;/div&gt;&lt;/div&gt;&lt;/div&gt;&lt;/div&gt;&lt;/div&gt;&lt;/div&gt;&lt;/div&gt;&lt;/div&gt;" style="rounded=0;whiteSpace=wrap;html=1;labelBackgroundColor=none;fontColor=default;fontStyle=0" parent="81" vertex="1">
                    <mxGeometry y="50" width="225" height="69" as="geometry"/>
                </mxCell>
                <mxCell id="82" style="edgeStyle=orthogonalEdgeStyle;rounded=0;html=1;exitX=1;exitY=0.5;exitDx=0;exitDy=0;entryX=0.5;entryY=0;entryDx=0;entryDy=0;labelBackgroundColor=default;fontSize=18;fontColor=default;" parent="1" source="78" target="4" edge="1">
                    <mxGeometry relative="1" as="geometry"/>
                </mxCell>
            </root>
        </mxGraphModel>
    </diagram>
</mxfile>